# AST/ASF file generated using VICON BodyLanguage
# -----------------------------------------------
:version 1.10
:name VICON
:units
  mass 1.0
  length 0.45
  angle deg
:documentation
   .ast/.asf automatically generated from VICON data using
   VICON BodyBuilder and BodyLanguage model FoxedUp or BRILLIANT.MOD
:root
   order TX TY TZ RX RY RZ
   axis XYZ
   position 0 0 0  
   orientation 0 0 0 
:bonedata
  begin
     id 1 
     name lhipjoint
     direction 0.690799 -0.707083 0.151096 
     length 2.54797 
     axis 0 0 0  XYZ
  end
  begin
     id 2 
     name lfemur
     direction 0.34202 -0.939693 0  
     length 7.21646  
     axis 0 0 20  XYZ
    dof rx ry rz
    limits (-160.0 20.0)
           (-70.0 70.0)
           (-60.0 70.0)
  end
  begin
     id 3 
     name ltibia
     direction 0.34202 -0.939693 0   
     length 8.16759   
     axis 0 0 20   XYZ
    dof rx
    limits (-10.0 170.0)
  end
  begin
     id 4 
     name lfoot
     direction 0.0487203 -0.133858 0.989802   
     length 1.93375   
     axis -90 7.62852e-016 20   XYZ
    dof rx rz
    limits (-45.0 90.0)
           (-70.0 20.0)
  end
  begin
     id 5 
     name ltoes
     direction 1.53453e-011 -4.21783e-011 1   
     length 0.979747   
     axis -90 7.62852e-016 20   XYZ
    dof rx
    limits (-90.0 20.0)
  end
  begin
     id 6 
     name rhipjoint
     direction -0.694693 -0.703425 0.150315   
     length 2.56122  
     axis 0 0 0  XYZ 
  end
  begin
     id 7 
     name rfemur
     direction -0.34202 -0.939693 0   
     length 7.36786   
     axis 0 0 -20   XYZ
    dof rx ry rz
    limits (-160.0 20.0)
           (-70.0 70.0)
           (-70.0 60.0)
  end
  begin
     id 8 
     name rtibia
     direction -0.34202 -0.939693 0   
     length 8.07288   
     axis 0 0 -20   XYZ
    dof rx
    limits (-10.0 170.0)
 end
 begin
     id 9 
     name rfoot
     direction -0.0428397 -0.117701 0.992125   
     length 1.88295  
     axis -90 -7.62852e-016 -20   XYZ
    dof rx rz
    limits (-45.0 90.0)
           (-20.0 70.0)
  end
  begin
     id 10 
     name rtoes
     direction -1.53456e-011 -4.2187e-011 1   
     length 0.955578   
     axis -90 -7.62852e-016 -20   XYZ
    dof rx
    limits (-90.0 20.0)
  end
  begin
     id 11 
     name lowerback
     direction 0.0288145 0.999398 -0.0193241   
     length 1.92149   
     axis 0 0 0   XYZ
    dof rx ry rz
    limits (-20.0 45.0)
           (-30.0 30.0)
           (-30.0 30.0)
  end
  begin
     id 12 
     name upperback
     direction 0.0233784 0.998099 0.0570278   
     length 1.90435   
     axis 0 0 0   XYZ
    dof rx ry rz
    limits (-20.0 45.0)
           (-30.0 30.0)
           (-30.0 30.0)
  end
  begin
     id 13 
     name thorax
     direction 0.0096694 0.997833 0.0650817   
     length 1.9111   
     axis 0 0 0   XYZ
    dof rx ry rz
    limits (-20.0 45.0)
           (-30.0 30.0)
           (-30.0 30.0)
  end
  begin
     id 14 
     name lowerneck
     direction 0.00516803 0.999916 0.0118722   
     length 1.74664   
     axis 0 0 0   XYZ
    dof rx ry rz
    limits (-20.0 45.0)
           (-30.0 30.0)
           (-30.0 30.0)
  end
  begin
     id 15 
     name upperneck
     direction -0.0510851 0.996117 -0.071696   
     length 1.68498   
     axis 0 0 0   XYZ
    dof rx ry rz
    limits (-20.0 45.0)
           (-30.0 30.0)
           (-30.0 30.0)
  end
  begin
     id 16
     name head
     direction -0.019188 0.999436 -0.0275702  
     length 1.83483  
     axis 0 0 0   XYZ
    dof rx ry rz
    limits (-20.0 45.0)
           (-30.0 30.0)
           (-30.0 30.0)
  end
  begin
     id 17 
     name lclavicle
     direction 0.967006 0.248456 -0.0562957  
     length 3.39395  
     axis 0 0 0   XYZ
    dof ry rz
    limits (-20.0 10.0)
           (0.0 20.0)
  end
  begin
     id 18 
     name lhumerus
     direction 1 -4.48962e-011 -5.62711e-019   
     length 5.24318   
     axis 180 -30 -90   XYZ
    dof rx ry rz
    limits (-60.0 90.0)
           (-90.0 90.0)
           (-90.0 90.0)
  end
  begin
     id 19
     name lradius
     direction 1 -4.48966e-011 7.90625e-027   
     length 2.98999   
     axis 180 -30 -90   XYZ
    dof rx
    limits (-10.0 170.0)
  end
  begin
     id 20
     name lwrist
     direction 1 -4.48959e-011 1.61068e-026   
     length 1.49499   
     axis -9.31229e-015 90 90   XYZ
    dof ry
    limits (-180.0 0.0)
 end
  begin
     id 21 
     name lhand
     direction 1 -4.49017e-011 3.22136e-026   
     length 0.726745   
     axis -2.0555e-014 90 90   XYZ
    dof rx rz
    limits (-90.0 90.0)
           (-45.0 45.0)
  end
  begin
     id 22 
     name lfingers
     direction 1 -4.4898e-011 6.44272e-026   
     length 0.58592   
     axis -4.11101e-014 90 90   XYZ
    dof rx
    limits (0.0 90.0)
  end
  begin
     id 23
     name lthumb
     direction 0.707107 -6.34922e-011 0.707107   
     length 0.841268   
     axis -90 45 2.85299e-015   XYZ
    dof rx rz
    limits (-45.0 45.0)
           (-45.0 45.0)
  end
  begin
     id 24 
     name rclavicle
     direction -0.972232 0.230238 0.0419005   
     length 3.40416  
     axis 0 0 0   XYZ 
    dof ry rz
    limits (-10.0 20.0)
           (-20.0 0.0)
  end
  begin
     id 25 
     name rhumerus
     direction -1 -4.48976e-011 2.48487e-027  
     length 5.37045   
     axis 180 30 90   XYZ
    dof rx ry rz
    limits (-90.0 60.0)
           (-90.0 90.0)
           (-90.0 90.0)
  end
  begin
     id 26 
     name rradius
     direction -1 -4.48942e-011 7.87951e-027   
     length 2.92792   
     axis 180 30 90   XYZ
    dof rx
    limits (-10.0 170.0)
  end
  begin
     id 27 
     name rwrist
     direction -1 -4.48969e-011 1.61068e-026   
     length 1.46396   
     axis -9.31229e-015 -90 -90   XYZ
    dof ry
    limits (-180.0 0.0)
  end
  begin
     id 28
     name rhand
     direction -1 -4.49043e-011 3.22136e-026   
     length 0.784497   
     axis -2.0555e-014 -90 -90   XYZ
    dof rx rz
    limits (-90.0 90.0)
           (-45.0 45.0)
  end
  begin
     id 29
     name rfingers
     direction -1 -4.48823e-011 6.44272e-026   
     length 0.632482   
     axis -4.11101e-014 -90 -90   XYZ
    dof rx
    limits (0.0 90.0)
  end
  begin
     id 30
     name rthumb
     direction -0.707107 -6.34923e-011 0.707107   
     length 0.908121   
     axis -90 -45 -2.85299e-015   XYZ
    dof rx rz
    limits (-45.0 45.0)
           (-45.0 45.0)
  end
:hierarchy
  begin
    root lhipjoint rhipjoint lowerback
    lhipjoint lfemur
    lfemur ltibia
    ltibia lfoot
    lfoot ltoes
    rhipjoint rfemur
    rfemur rtibia
    rtibia rfoot
    rfoot rtoes
    lowerback upperback
    upperback thorax
    thorax lowerneck lclavicle rclavicle
    lowerneck upperneck
    upperneck head
    lclavicle lhumerus
    lhumerus lradius
    lradius lwrist
    lwrist lhand lthumb
    lhand lfingers
    rclavicle rhumerus
    rhumerus rradius
    rradius rwrist
    rwrist rhand rthumb
    rhand rfingers
  end

#!OML:ASF E:\Style6\Style6.ASF
:FULLY-SPECIFIED
:DEGREES
995
root 0.213836 18.2996 0.405473 10.5316 -2.55392 -3.46545
lowerback -6.14562 -0.51121 2.96154
upperback -3.6162 -0.846458 2.90288
thorax -0.280355 -0.442114 1.27534
lowerneck -9.7528 0.590511 3.59035
upperneck 8.71393 0.954112 -6.2934
head 4.24688 0.229962 -2.46094
rclavicle 1.69806e-014 -2.5842e-014
rhumerus -33.0538 -21.1959 -73.3521
rradius 25.0211
rwrist 38.8486
rhand -9.899 11.3591
rfingers 7.12502
rthumb 16.0809 -17.9936
lclavicle 1.69806e-014 -2.5842e-014
lhumerus -31.7156 18.4421 79.1142
lradius 19.2889
lwrist -28.1312
lhand -10.6541 15.3333
lfingers 7.12502
lthumb 15.3537 44.7433
rfemur 0 0 0
rtibia 0
rfoot 0 0
rtoes 0
lfemur -14.1386 -26.0694 -11.6091
ltibia 17.3234
lfoot -6.46041 29.0742
ltoes -7.5081
996
root 0.213179 18.3002 0.410894 10.5036 -2.3514 -3.42899
lowerback -6.08654 -0.593684 2.93372
upperback -3.60006 -0.952373 2.89813
thorax -0.295952 -0.494762 1.28047
lowerneck -9.72718 0.595699 3.64188
upperneck 8.62237 0.95809 -6.36714
head 4.21549 0.23076 -2.49135
rclavicle -1.48343e-014 4.77083e-015
rhumerus -33.9371 -23.8561 -71.5739
rradius 23.5117
rwrist 40.4969
rhand -10.1019 11.177
rfingers 7.12502
rthumb 15.8855 -18.1914
lclavicle -1.48343e-014 4.77083e-015
lhumerus -32.5982 22.0664 76.8024
lradius 17.2677
lwrist -31.8288
lhand -10.7009 15.4411
lfingers 7.12502
lthumb 15.3086 44.8545
rfemur 0 0 0
rtibia 0
rfoot 0 0
rtoes 0
lfemur -14.0952 -26.2669 -11.6027
ltibia 17.2248
lfoot -6.15904 29.0433
ltoes -8.21821
997
root 0.213493 18.3013 0.414758 10.5301 -2.25521 -3.36985
lowerback -6.06446 -0.616291 2.90413
upperback -3.57877 -0.98048 2.8597
thorax -0.286258 -0.508535 1.25588
lowerneck -9.73893 0.572081 3.68451
upperneck 8.49623 0.918778 -6.41044
head 4.1773 0.211416 -2.51349
rclavicle 1.88224e-015 1.23246e-014
rhumerus -34.9277 -26.43 -69.7151
rradius 22.2168
rwrist 42.0337
rhand -10.0973 10.8112
rfingers 7.12502
rthumb 15.89 -18.5569
lclavicle 1.88224e-015 1.23246e-014
lhumerus -33.7844 26.0385 74.0045
lradius 15.4547
lwrist -36.294
lhand -10.8084 15.464
lfingers 7.12502
lthumb 15.205 44.8853
rfemur 0 0 0
rtibia 0
rfoot 0 0
rtoes 0
lfemur -14.0999 -26.4237 -11.627
ltibia 17.1471
lfoot -6.24091 29.0888
ltoes -7.62884
998
root 0.213253 18.3012 0.417506 10.6309 -2.3065 -3.31231
lowerback -6.06149 -0.606319 2.83055
upperback -3.60572 -0.962281 2.83769
thorax -0.314702 -0.498912 1.27571
lowerneck -9.76417 0.578193 3.6449
upperneck 8.42141 0.925297 -6.3788
head 4.15875 0.215432 -2.49634
rclavicle 6.5102e-015 -5.56597e-015
rhumerus -36.1729 -29.0686 -67.5973
rradius 21.1735
rwrist 43.8966
rhand -9.7921 10.29
rfingers 7.12502
rthumb 16.1838 -19.0544
lclavicle 6.5102e-015 -5.56597e-015
lhumerus -35.4361 29.9867 70.8656
lradius 14.054
lwrist -41.2163
lhand -10.5847 16.0608
lfingers 7.12502
lthumb 15.4205 45.4656
rfemur 0 0 0
rtibia 0
rfoot 0 0
rtoes 0
lfemur -14.1625 -26.4581 -11.6549
ltibia 17.0907
lfoot -6.62199 29.192
ltoes -6.34631
999
root 0.211907 18.3007 0.420392 10.7113 -2.44753 -3.33932
lowerback -5.92712 -0.562789 2.78446
upperback -3.71184 -0.89158 2.85775
thorax -0.497843 -0.464468 1.32873
lowerneck -9.66022 0.586448 3.59735
upperneck 8.3755 0.940558 -6.35113
head 4.12799 0.225107 -2.47849
rclavicle 1.66731e-014 -2.78299e-015
rhumerus -37.7528 -31.4357 -65.3026
rradius 20.3934
rwrist 45.7625
rhand -9.49638 9.8057
rfingers 7.12502
rthumb 16.4686 -19.5153
lclavicle 1.66731e-014 -2.78299e-015
lhumerus -37.6068 33.3129 67.6195
lradius 13.1839
lwrist -45.7262
lhand -10.0488 16.9549
lfingers 7.12502
lthumb 15.9367 46.3192
rfemur 0 0 0
rtibia 0
rfoot 0 0
rtoes 0
lfemur -14.1805 -26.4882 -11.6202
ltibia 17.053
lfoot -6.80312 29.3756
ltoes -5.73683
1000
root 0.211822 18.3018 0.426821 10.7251 -2.63003 -3.35695
lowerback -5.77274 -0.493027 2.76616
upperback -3.77469 -0.788027 2.85323
thorax -0.648528 -0.413734 1.34201
lowerneck -9.66665 0.583434 3.59366
upperneck 8.38839 0.941243 -6.38777
head 4.13321 0.223047 -2.48927
rclavicle 1.86361e-017 -5.56597e-015
rhumerus -39.329 -33.119 -63.3233
rradius 19.9197
rwrist 47.095
rhand -9.28055 9.18924
rfingers 7.12502
rthumb 16.6764 -20.1144
lclavicle 1.86361e-017 -5.56597e-015
lhumerus -39.9282 36.0379 64.3658
lradius 12.4925
lwrist -49.4346
lhand -9.88043 17.1241
lfingers 7.12502
lthumb 16.0988 46.4754
rfemur 0 0 0
rtibia 0
rfoot 0 0
rtoes 0
lfemur -14.1006 -26.5547 -11.647
ltibia 17.0271
lfoot -6.84027 29.6164
ltoes -5.87738
1001
root 0.212852 18.3018 0.432693 10.772 -2.72032 -3.35014
lowerback -5.72631 -0.463372 2.76593
upperback -3.7739 -0.746384 2.84622
thorax -0.673727 -0.393155 1.33746
lowerneck -9.82625 0.590704 3.55827
upperneck 8.39314 0.956056 -6.42082
head 4.16202 0.224656 -2.4931
rclavicle -5.85172e-015 -4.33351e-014
rhumerus -40.6642 -34.1643 -61.7873
rradius 19.7467
rwrist 47.7915
rhand -8.87575 8.71041
rfingers 7.12502
rthumb 17.066 -20.56
lclavicle -5.85172e-015 -4.33351e-014
lhumerus -42.1458 38.2841 61.3077
lradius 11.9294
lwrist -52.4241
lhand -10.0333 16.8057
lfingers 7.12502
lthumb 15.9516 46.1688
rfemur 0 0 0
rtibia 0
rfoot 0 0
rtoes 0
lfemur -14.0867 -26.4752 -11.6786
ltibia 16.9959
lfoot -6.8066 29.6601
ltoes -6.24002
1002
root 0.213687 18.3012 0.435934 10.8179 -2.75338 -3.33255
lowerback -5.70395 -0.470885 2.73529
upperback -3.7264 -0.755872 2.85709
thorax -0.636479 -0.396854 1.3651
lowerneck -10.0697 0.618819 3.48522
upperneck 8.3996 0.997243 -6.40074
head 4.2062 0.239595 -2.47275
rclavicle -4.86401e-015 -4.25399e-014
rhumerus -41.7115 -34.8353 -60.5992
rradius 19.6842
rwrist 48.0531
rhand -8.2059 8.31942
rfingers 7.12502
rthumb 17.7107 -20.894
lclavicle -4.86401e-015 -4.25399e-014
lhumerus -43.9633 39.6701 59.0066
lradius 11.6792
lwrist -54.3409
lhand -10.1827 16.7933
lfingers 7.12502
lthumb 15.8077 46.1679
rfemur 0 0 0
rtibia 0
rfoot 0 0
rtoes 0
lfemur -14.0874 -26.3716 -11.6961
ltibia 16.9342
lfoot -6.58244 29.5881
ltoes -6.78384
1003
root 0.212786 18.3038 0.439034 10.8399 -2.7457 -3.37286
lowerback -5.65303 -0.500237 2.73264
upperback -3.66756 -0.794829 2.8964
thorax -0.603358 -0.415496 1.4051
lowerneck -10.2292 0.646159 3.37612
upperneck 8.32137 1.03092 -6.28583
head 4.20942 0.257386 -2.41685
rclavicle -1.55922e-015 1.39149e-014
rhumerus -42.5658 -35.1425 -59.7267
rradius 19.6422
rwrist 48.107
rhand -7.77282 8.02854
rfingers 7.12502
rthumb 18.1274 -21.1468
lclavicle -1.55922e-015 1.39149e-014
lhumerus -44.8444 39.5562 58.2914
lradius 11.7197
lwrist -54.3622
lhand -10.2358 17.081
lfingers 7.12502
lthumb 15.7565 46.4597
rfemur 0 0 0
rtibia 0
rfoot 0 0
rtoes 0
lfemur -14.0825 -26.5769 -11.6249
ltibia 16.8999
lfoot -6.23379 29.7877
ltoes -7.7526
1004
root 0.212782 18.3057 0.440728 10.9105 -2.73796 -3.34518
lowerback -5.61476 -0.526868 2.67654
upperback -3.63471 -0.827319 2.90051
thorax -0.589605 -0.430616 1.4392
lowerneck -10.2691 0.668362 3.40529
upperneck 8.07306 1.0468 -6.30949
head 4.14137 0.266774 -2.4265
rclavicle -2.24999e-014 5.92378e-014
rhumerus -43.2724 -34.9702 -59.2836
rradius 19.7996
rwrist 47.7349
rhand -7.35472 7.75844
rfingers 7.12502
rthumb 18.5296 -21.379
lclavicle -2.24999e-014 5.92378e-014
lhumerus -44.9108 38.1241 58.9896
lradius 11.946
lwrist -52.8257
lhand -10.1338 17.2302
lfingers 7.12502
lthumb 15.8548 46.601
rfemur 0 0 0
rtibia 0
rfoot 0 0
rtoes 0
lfemur -14.1477 -26.912 -11.5855
ltibia 16.8518
lfoot -6.36085 30.1084
ltoes -7.24929
1005
root 0.213755 18.3051 0.441839 11.0194 -2.76413 -3.37464
lowerback -5.56256 -0.516483 2.69187
upperback -3.6644 -0.810574 2.90824
thorax -0.649491 -0.422927 1.44025
lowerneck -10.1198 0.671053 3.46643
upperneck 7.68387 1.03829 -6.42431
head 3.99869 0.264716 -2.47009
rclavicle -1.62755e-014 2.70347e-014
rhumerus -43.8234 -34.0831 -59.3768
rradius 20.2058
rwrist 46.5471
rhand -6.81179 7.30978
rfingers 7.12502
rthumb 19.0518 -21.7771
lclavicle -1.62755e-014 2.70347e-014
lhumerus -45.0176 36.5071 59.7966
lradius 12.19
lwrist -51.1828
lhand -10.0063 17.0924
lfingers 7.12502
lthumb 15.9776 46.4535
rfemur 0 0 0
rtibia 0
rfoot 0 0
rtoes 0
lfemur -14.2461 -27.006 -11.4921
ltibia 16.8058
lfoot -6.89965 30.2371
ltoes -5.5541
1006
root 0.215128 18.304 0.444263 11.0811 -2.8284 -3.31507
lowerback -5.54078 -0.513357 2.61234
upperback -3.6232 -0.803592 2.90613
thorax -0.617891 -0.417826 1.48276
lowerneck -10.1068 0.685305 3.4484
upperneck 7.33009 1.0513 -6.50348
head 3.89013 0.270414 -2.48878
rclavicle -4.94477e-015 4.37326e-015
rhumerus -44.186 -33.1724 -59.5889
rradius 20.5142
rwrist 45.3749
rhand -6.40265 7.15526
rfingers 7.12502
rthumb 19.4453 -21.8924
lclavicle -4.94477e-015 4.37326e-015
lhumerus -45.1321 35.1576 60.5326
lradius 12.442
lwrist -49.5617
lhand -10.0788 16.891
lfingers 7.12502
lthumb 15.9077 46.2577
rfemur 0 0 0
rtibia 0
rfoot 0 0
rtoes 0
lfemur -14.2745 -27.0948 -11.5413
ltibia 16.7719
lfoot -7.10876 30.3681
ltoes -4.89933
1007
root 0.213158 18.3035 0.44895 11.0767 -2.88766 -3.28558
lowerback -5.52739 -0.492041 2.54359
upperback -3.49018 -0.776695 2.897
thorax -0.487364 -0.40215 1.51205
lowerneck -10.3156 0.679969 3.43042
upperneck 7.08402 1.03307 -6.52957
head 3.84895 0.258732 -2.49406
rclavicle -7.30534e-015 5.20816e-014
rhumerus -44.5503 -32.6558 -59.649
rradius 20.7802
rwrist 44.5803
rhand -6.13397 7.41489
rfingers 7.12502
rthumb 19.7036 -21.6065
lclavicle -7.30534e-015 5.20816e-014
lhumerus -44.7967 33.2574 61.9447
lradius 12.821
lwrist -47.1386
lhand -10.0728 16.7028
lfingers 7.12502
lthumb 15.9136 46.0689
rfemur 0 0 0
rtibia 0
rfoot 0 0
rtoes 0
lfemur -14.2285 -27.1196 -11.5972
ltibia 16.7843
lfoot -7.18054 30.4277
ltoes -4.90185
